<?xml version="1.0" encoding="utf-8"?>
<!-- Generator: Adobe Illustrator 22.0.0, SVG Export Plug-In . SVG Version: 6.00 Build 0)  -->
<svg version="1.1" id="b4616936-6f5a-40a9-be38-8fa484b2f650" focusable="false"
	 xmlns="http://www.w3.org/2000/svg" xmlns:xlink="http://www.w3.org/1999/xlink" x="0px" y="0px" viewBox="0 0 768.2 316.1"
	 style="enable-background:new 0 0 768.2 316.1;" xml:space="preserve">
<style type="text/css">
	.st0{enable-background:new    ;}
	.st1{fill:#305BA9;}
	.st2{fill:#9FCD5E;}
</style>
<title>Observatório COVID-19 BR</title>
<g class="st0">
	<path class="st1" d="M31.8,264.8c0,3.3,0.2,6.4,0.5,9.2c0.4,2.8,1,5.2,2,7.2c1,2,2.3,3.6,4,4.8c1.7,1.2,3.8,1.8,6.4,1.8
		c2.7,0,4.8-0.6,6.4-1.8c1.6-1.2,2.9-2.8,3.9-4.8c1-2,1.6-4.4,2-7.2c0.4-2.8,0.5-5.8,0.5-9.2v-92.3h22.1v92.3c0,8.4-1,15.4-2.9,20.9
		c-1.9,5.5-4.6,9.9-7.8,13.1c-3.3,3.2-7,5.4-11.2,6.5c-4.2,1.1-8.5,1.7-13.1,1.7c-4.5,0-8.9-0.5-13.1-1.5c-4.2-1-7.9-3-11.2-6
		c-3.3-3-5.9-7.3-7.8-12.9c-1.9-5.6-2.9-12.8-2.9-21.7v-92.3h22.1V264.8z"/>
	<path class="st1" d="M114.3,172.5v41.9h0.3c2.2-4,4.8-6.9,7.6-8.9c2.8-2,6.2-3,10.2-3c8.7,0,15.1,4.1,19.2,12.3
		c4.1,8.2,6.1,21.6,6.1,40.1s-2,31.8-6.1,39.8c-4.1,8-10.5,12-19.2,12c-4.3,0-7.9-0.9-10.8-2.8c-2.9-1.9-5.6-5.1-7.9-9.8h-0.3v10.6
		H93.1V172.5H114.3z M116.3,279.5c1.4,5.5,4.4,8.2,9.1,8.2c4.6,0,7.6-2.7,9-8.2c1.4-5.5,2.1-13.7,2.1-24.6c0-10.9-0.7-19.1-2.1-24.6
		c-1.4-5.5-4.4-8.2-9-8.2c-4.7,0-7.8,2.8-9.1,8.2c-1.4,5.5-2.1,13.7-2.1,24.6C114.3,265.9,115,274,116.3,279.5z"/>
	<path class="st1" d="M188,266.8c0,3,0.2,5.8,0.5,8.6c0.4,2.8,0.9,5.3,1.8,7.4c0.8,2.2,1.9,3.9,3.2,5.2c1.3,1.3,3,1.9,4.9,1.9
		c3.6,0,6.2-1.5,7.8-4.6c1.6-3.1,2.8-7.8,3.4-14.1h19c-0.4,11.6-3,20.5-7.7,26.5c-4.7,6.1-12.1,9.1-22.3,9.1c-7.7,0-13.7-1.5-18-4.6
		c-4.3-3.1-7.5-7.2-9.5-12.2c-2-5.1-3.3-10.7-3.8-17.1c-0.5-6.3-0.7-12.6-0.7-18.9c0-6.7,0.4-13.1,1.2-19.3
		c0.8-6.2,2.3-11.7,4.6-16.5c2.3-4.8,5.6-8.6,9.9-11.5c4.3-2.8,10-4.3,17.2-4.3c6.1,0,11.2,1.2,15.1,3.6c3.9,2.4,7,5.8,9.3,10.2
		c2.2,4.4,3.8,9.7,4.6,15.9c0.8,6.2,1.2,13.2,1.2,20.9v5.7H188V266.8z M209,233.6c-0.3-2.9-0.8-5.4-1.6-7.4s-1.8-3.6-3.2-4.6
		c-1.4-1-3.1-1.6-5.3-1.6s-3.9,0.6-5.3,1.8c-1.4,1.2-2.5,2.7-3.3,4.6c-0.8,1.9-1.4,4-1.8,6.4c-0.4,2.3-0.5,4.7-0.5,7v3.9h21.6
		C209.5,239.8,209.3,236.5,209,233.6z"/>
	<path class="st1" d="M261.2,205.1v13.3h0.3c2.1-4.8,4.8-8.7,7.8-11.6c3.1-2.9,6.8-4.4,11.2-4.4c0.6,0,1.3,0,1.9,0.1
		c0.7,0.1,1.3,0.2,1.9,0.3v24.5c-1.1-0.1-2.2-0.2-3.3-0.3c-1.1-0.1-2.2-0.1-3.3-0.1c-1.8,0-3.7,0.3-5.5,0.9
		c-1.8,0.6-3.5,1.6-5.1,3.1c-1.5,1.4-2.8,3.3-3.7,5.6c-0.9,2.3-1.4,5.1-1.4,8.4v59.9h-21.2v-99.7H261.2z"/>
	<path class="st1" d="M291.9,233.3c0-5.8,0.8-10.7,2.3-14.5s3.6-7,6.2-9.5c2.6-2.4,5.7-4.1,9.2-5.2c3.5-1,7.3-1.6,11.3-1.6
		c6.3,0,11.5,0.7,15.4,2.2c3.9,1.5,6.9,3.6,9.1,6.3c2.1,2.7,3.6,6,4.4,9.7c0.8,3.8,1.2,7.9,1.2,12.3v52.5c0,4.7,0.2,8.3,0.5,10.9
		c0.4,2.6,1,5.4,2.1,8.3h-20.3c-0.7-1.6-1.3-3.3-1.6-5.1c-0.4-1.8-0.7-3.5-1-5.3h-0.3c-2.5,5.2-5.3,8.6-8.5,10.1
		c-3.2,1.5-7.4,2.3-12.5,2.3c-3.7,0-6.8-0.8-9.4-2.3c-2.6-1.5-4.6-3.7-6.1-6.4c-1.5-2.7-2.7-5.8-3.4-9.2c-0.7-3.4-1.1-6.8-1.1-10.1
		c0-4.7,0.4-8.7,1.2-12.1c0.8-3.4,2.1-6.3,3.8-8.7s3.8-4.4,6.4-6c2.6-1.6,5.8-3,9.4-4.3l12-3.9c3.2-1,5.4-2.3,6.6-4.1
		c1.2-1.7,1.8-4.3,1.8-7.6c0-3.8-0.7-6.8-2.2-9c-1.5-2.2-4-3.2-7.6-3.2c-3.3,0-5.7,1.2-7.4,3.5c-1.6,2.3-2.5,5.5-2.5,9.5v2.8h-19
		V233.3z M326,258.2c-1.6,0.8-3.1,1.4-4.5,1.8c-4.3,1.1-7.4,3-9.2,5.6c-1.8,2.6-2.8,6.1-2.8,10.6c0,3.8,0.6,7.1,1.8,9.8
		c1.2,2.7,3.3,4.1,6.1,4.1c1.4,0,2.9-0.3,4.5-0.8s2.9-1.5,4.2-2.7c1.3-1.2,2.3-2.8,3.1-4.8c0.8-2,1.2-4.3,1.2-7V255
		C329.2,256.3,327.6,257.4,326,258.2z"/>
	<path class="st1" d="M387.1,172.5v41.9h0.3c2.3-4,4.8-6.9,7.6-8.9c2.8-2,6.2-3,10.2-3c8.7,0,15.1,4.1,19.2,12.3
		c4.1,8.2,6.1,21.6,6.1,40.1s-2,31.8-6.1,39.8c-4.1,8-10.5,12-19.2,12c-4.3,0-7.9-0.9-10.8-2.8s-5.6-5.1-7.9-9.8h-0.3v10.6h-20.3
		V172.5H387.1z M389.2,279.5c1.4,5.5,4.4,8.2,9.1,8.2c4.6,0,7.6-2.7,9-8.2c1.4-5.5,2.1-13.7,2.1-24.6c0-10.9-0.7-19.1-2.1-24.6
		c-1.4-5.5-4.4-8.2-9-8.2c-4.7,0-7.8,2.8-9.1,8.2c-1.4,5.5-2.1,13.7-2.1,24.6C387.1,265.9,387.8,274,389.2,279.5z"/>
	<path class="st1" d="M442.5,233.3c0-5.8,0.8-10.7,2.3-14.5s3.6-7,6.2-9.5c2.6-2.4,5.7-4.1,9.2-5.2c3.5-1,7.3-1.6,11.3-1.6
		c6.3,0,11.5,0.7,15.4,2.2c3.9,1.5,6.9,3.6,9.1,6.3c2.1,2.7,3.6,6,4.4,9.7c0.8,3.8,1.2,7.9,1.2,12.3v52.5c0,4.7,0.2,8.3,0.5,10.9
		c0.4,2.6,1,5.4,2.1,8.3h-20.3c-0.7-1.6-1.3-3.3-1.6-5.1c-0.4-1.8-0.7-3.5-1-5.3h-0.3c-2.5,5.2-5.3,8.6-8.5,10.1
		c-3.2,1.5-7.4,2.3-12.5,2.3c-3.7,0-6.8-0.8-9.4-2.3c-2.6-1.5-4.6-3.7-6.1-6.4c-1.5-2.7-2.7-5.8-3.4-9.2c-0.7-3.4-1.1-6.8-1.1-10.1
		c0-4.7,0.4-8.7,1.2-12.1c0.8-3.4,2.1-6.3,3.8-8.7c1.7-2.4,3.8-4.4,6.4-6c2.6-1.6,5.8-3,9.4-4.3l12-3.9c3.2-1,5.4-2.3,6.6-4.1
		c1.2-1.7,1.8-4.3,1.8-7.6c0-3.8-0.7-6.8-2.2-9c-1.5-2.2-4-3.2-7.6-3.2c-3.3,0-5.7,1.2-7.4,3.5c-1.6,2.3-2.5,5.5-2.5,9.5v2.8h-19
		V233.3z M476.6,258.2c-1.6,0.8-3.1,1.4-4.5,1.8c-4.3,1.1-7.4,3-9.2,5.6c-1.8,2.6-2.8,6.1-2.8,10.6c0,3.8,0.6,7.1,1.8,9.8
		c1.2,2.7,3.3,4.1,6.1,4.1c1.4,0,2.9-0.3,4.5-0.8s2.9-1.5,4.2-2.7c1.3-1.2,2.3-2.8,3.1-4.8c0.8-2,1.2-4.3,1.2-7V255
		C479.8,256.3,478.2,257.4,476.6,258.2z"/>
	<path class="st1" d="M559.5,262.2h-43.3v-21.9h43.3V262.2z"/>
	<path class="st1" d="M607.3,172.5l15.7,93.4h0.3l15.8-93.4h32.7v132.3h-20.3V199.2h-0.3l-19.5,105.6h-17.2L595,199.2h-0.3v105.6
		h-20.3V172.5H607.3z"/>
	<path class="st1" d="M735.5,204.2c-0.5-2.6-1.2-5-2.2-7.1c-1-2.2-2.3-4-3.9-5.4c-1.6-1.4-3.5-2.1-5.8-2.1c-5.3,0-9.2,3.6-11.5,10.8
		c-2.4,7.2-3.5,19-3.5,35.6c0,7.9,0.2,15.1,0.6,21.5c0.4,6.4,1.2,11.9,2.2,16.4c1.1,4.5,2.6,8,4.6,10.4c2,2.4,4.6,3.6,7.8,3.6
		c1.3,0,2.8-0.4,4.4-1.3c1.6-0.9,3.1-2.2,4.5-3.9c1.4-1.7,2.5-3.9,3.5-6.6c0.9-2.7,1.4-5.8,1.4-9.4v-13.5h-14.6v-19.6h35.8v71.4
		h-16.3v-12.2h-0.3c-2.7,5.2-5.9,8.9-9.6,11c-3.7,2.2-8.2,3.2-13.4,3.2c-6.8,0-12.3-1.4-16.5-4.3c-4.2-2.8-7.6-7.2-10-13.2
		c-2.4-5.9-4-13.3-4.8-22c-0.8-8.7-1.2-18.8-1.2-30.3c0-11.1,0.6-20.9,1.8-29.3c1.2-8.4,3.2-15.4,6.1-21c2.9-5.6,6.7-9.9,11.4-12.7
		c4.7-2.8,10.6-4.3,17.7-4.3c12.1,0,20.8,3.6,26.1,10.8c5.3,7.2,8,17.6,8,31h-21.2C736.2,209.3,736,206.8,735.5,204.2z"/>
</g>
<g class="st0">
	<path class="st2" d="M100,39.9c-2.3-4-5.2-7.4-8.6-10.1c-3.4-2.7-7.1-4.8-11.2-6.2c-4.1-1.4-8.3-2.1-12.8-2.1c-8.1,0-15.1,1.7-21,5
		c-5.8,3.3-10.6,7.8-14.3,13.3c-3.7,5.5-6.5,11.7-8.2,18.6c-1.8,6.9-2.7,14-2.7,21.3c0,7.2,0.9,14.2,2.7,21.2
		c1.8,7,4.5,13.2,8.2,18.7c3.7,5.5,8.5,9.9,14.3,13.3c5.8,3.3,12.8,5,21,5c5.7,0,10.9-1.1,15.5-3.3c4.6-2.2,8.5-5.2,11.9-9.1
		c3.3-3.8,6-8.3,8.1-13.4c2.1-5.1,3.4-10.7,4-16.6h11.7c-0.8,8.2-2.6,15.5-5.3,22.1c-2.7,6.6-6.3,12.1-10.7,16.7
		c-4.4,4.6-9.5,8.1-15.4,10.6c-5.9,2.5-12.5,3.7-19.7,3.7c-9.6,0-18.1-1.9-25.3-5.7c-7.3-3.8-13.3-8.8-18.1-15.1
		c-4.8-6.3-8.4-13.6-10.8-21.9c-2.4-8.3-3.6-17-3.6-26.1c0-9.1,1.2-17.9,3.6-26.1c2.4-8.3,6-15.6,10.8-22
		c4.8-6.4,10.9-11.4,18.1-15.2c7.3-3.8,15.7-5.7,25.3-5.7c5.8,0,11.5,0.9,17.1,2.8c5.6,1.9,10.6,4.6,15.1,8.2
		c4.5,3.6,8.3,8.1,11.3,13.4c3,5.3,5,11.4,5.8,18.3H105C104,48.5,102.3,43.9,100,39.9z"/>
	<path class="st2" d="M133.4,53.5c2.4-8.3,6-15.6,10.8-22c4.8-6.4,10.9-11.4,18.1-15.2c7.3-3.8,15.7-5.7,25.3-5.7s18,1.9,25.3,5.7
		c7.2,3.8,13.2,8.8,18,15.2c4.8,6.4,8.4,13.7,10.8,22c2.4,8.3,3.6,17,3.6,26.1c0,9.1-1.2,17.9-3.6,26.1c-2.4,8.3-6,15.6-10.8,21.9
		c-4.8,6.3-10.8,11.3-18,15.1c-7.2,3.8-15.6,5.7-25.3,5.7s-18.1-1.9-25.3-5.7c-7.3-3.8-13.3-8.8-18.1-15.1
		c-4.8-6.3-8.4-13.6-10.8-21.9c-2.4-8.3-3.6-17-3.6-26.1C129.8,70.5,131,61.8,133.4,53.5z M144.1,100.9c1.8,7,4.5,13.2,8.2,18.7
		c3.7,5.5,8.5,9.9,14.3,13.3c5.8,3.3,12.8,5,21,5c8.1,0,15.1-1.7,20.9-5c5.8-3.3,10.5-7.8,14.3-13.3c3.7-5.5,6.5-11.7,8.2-18.7
		c1.8-7,2.7-14.1,2.7-21.2c0-7.3-0.9-14.4-2.7-21.3c-1.8-6.9-4.5-13.1-8.2-18.6c-3.7-5.5-8.5-9.9-14.3-13.3c-5.8-3.3-12.7-5-20.9-5
		c-8.1,0-15.1,1.7-21,5c-5.8,3.3-10.6,7.8-14.3,13.3c-3.7,5.5-6.5,11.7-8.2,18.6c-1.8,6.9-2.7,14-2.7,21.3
		C141.5,86.8,142.3,93.9,144.1,100.9z"/>
	<path class="st2" d="M262.6,13.5l39.9,118.4h0.3l39.5-118.4h12.4l-45.5,132.3h-13.6L250.2,13.5H262.6z"/>
	<path class="st2" d="M378.1,13.5v132.3h-11.7V13.5H378.1z"/>
	<path class="st2" d="M446.1,13.5c18.7,0.5,32.7,6.1,42.2,17c9.5,10.8,14.2,27.2,14.2,49.2c0,22-4.7,38.4-14.2,49.2
		c-9.5,10.8-23.5,16.5-42.2,17h-42.4V13.5H446.1z M440.2,135.1c8.8,0,16.4-1,22.8-3.1c6.4-2,11.6-5.3,15.7-9.7s7.2-10.2,9.1-17.2
		c1.9-7,2.9-15.5,2.9-25.4c0-9.9-1-18.3-2.9-25.4c-1.9-7-5-12.8-9.1-17.2s-9.4-7.7-15.7-9.7c-6.4-2-13.9-3.1-22.8-3.1h-24.9v110.8
		H440.2z"/>
	<path class="st2" d="M519.3,89.5h43v10.7h-43V89.5z"/>
	<path class="st2" d="M602,40.3c3.8-0.4,7.2-1.5,10-3.1c2.8-1.6,5.2-4,7-7.3c1.9-3.3,3.2-7.9,4-13.8h8.8v129.7H621V49.5h-31.8v-8.3
		C593.9,41,598.2,40.7,602,40.3z"/>
	<path class="st2" d="M695.7,132.1c4.4,4.4,10.1,6.7,17.1,6.7c7.1,0,12.8-1.9,17.1-5.7c4.3-3.8,7.6-8.6,10.1-14.5
		c2.4-5.8,4-12.1,4.8-18.8c0.8-6.7,1.2-13.1,1.2-19h-0.3c-2.9,6.4-7.2,11.6-13,15.6c-5.8,4-12.1,5.9-19,5.9c-6,0-11.4-1.1-16.3-3.2
		c-4.9-2.2-9.1-5.2-12.5-9c-3.4-3.8-6.1-8.4-8-13.7c-1.9-5.3-2.8-11.1-2.8-17.4s1-12.1,3-17.5c2-5.4,4.8-10,8.4-13.9s7.9-7,12.9-9.2
		c5-2.2,10.5-3.3,16.4-3.3c7.3,0,13.6,1.2,18.9,3.6c5.3,2.4,9.6,6.4,13.1,11.9c3.4,5.5,6,12.6,7.6,21.4c1.7,8.8,2.5,19.5,2.5,32.1
		c0,2.6-0.1,6-0.4,10.2c-0.3,4.2-0.9,8.7-2,13.4c-1,4.8-2.5,9.6-4.4,14.5c-1.9,4.9-4.4,9.3-7.6,13.2c-3.2,3.9-7.1,7.1-11.8,9.5
		c-4.7,2.5-10.3,3.7-16.8,3.7c-10.8,0-19.3-2.7-25.6-8.2c-6.3-5.5-10.1-14-11.3-25.5h10.8C688.6,121.9,691.3,127.7,695.7,132.1z
		 M726.4,89.8c3.7-1.8,6.9-4.2,9.5-7.3c2.6-3.1,4.5-6.7,5.8-10.8c1.3-4.1,2-8.6,2-13.4c0-4.7-0.6-9-1.7-13.1c-1.1-4-3-7.5-5.4-10.6
		c-2.5-3-5.6-5.4-9.4-7.1c-3.8-1.7-8.3-2.6-13.6-2.6c-4.2,0-8.1,0.9-11.7,2.7c-3.6,1.8-6.6,4.2-9.2,7.2c-2.6,3-4.6,6.6-5.9,10.7
		c-1.4,4.1-2.1,8.3-2.1,12.8c0,4.7,0.7,9.1,2,13.3c1.3,4.2,3.2,7.8,5.7,10.9c2.5,3.1,5.5,5.5,9.1,7.3c3.6,1.8,7.7,2.7,12.3,2.7
		C718.5,92.5,722.7,91.6,726.4,89.8z"/>
</g>
</svg>
