<?xml version="1.0" encoding="utf-8"?>
<!-- Generator: Adobe Illustrator 22.0.0, SVG Export Plug-In . SVG Version: 6.00 Build 0)  -->
<svg version="1.1" id="b4616936-6f5a-40a9-be38-8fa484b2f650" focusable="false"
	 xmlns="http://www.w3.org/2000/svg" xmlns:xlink="http://www.w3.org/1999/xlink" x="0px" y="0px" viewBox="0 0 425.2 425.2"
	 style="enable-background:new 0 0 425.2 425.2;" xml:space="preserve">
<style type="text/css">
	.st0{fill:#FFFFFF;stroke:#FFFFFF;stroke-miterlimit:10;}
	.st1{fill:#2F3438;}
	.st2{enable-background:new    ;}
</style>
<path class="st0" d="M356,425.2H69.2C31.1,425.2,0,394.1,0,356V69.2C0,31.1,31.1,0,69.2,0H356c38.1,0,69.2,31.1,69.2,69.2V356
	C425.2,394.1,394.1,425.2,356,425.2z"/>
<title>Observatório COVID-19 BR</title>
<g>
	<path class="st1" d="M297.2,124.8c-13.2,0-25.7,2.4-37.1,7c-0.2-0.2-0.6-0.6-0.8-1.1c-0.6-0.8-1.1-1.4-1.7-2.1
		c-0.6-0.7-1.1-1.4-1.7-2.1c-0.6-0.8-1.1-1.4-1.7-2.1c-0.6-0.8-1.1-1.4-1.7-2.1c-0.6-0.8-1.1-1.4-1.7-2.1c-0.6-0.7-1.1-1.4-1.7-2.1
		c-0.6-0.8-1.1-1.4-1.7-2.1c-0.6-0.8-1.1-1.4-1.7-2.1c-0.6-0.8-1.1-1.4-1.7-2.1c-0.6-0.8-1.1-1.4-1.7-2.1c-0.6-0.8-1.1-1.4-1.7-2.1
		c-0.6-0.8-1.1-1.4-1.7-2.1c-0.6-0.8-1.1-1.4-1.7-2.1c-0.6-0.8-1.1-1.4-1.7-2.1c-0.6-0.8-1.1-1.4-1.7-2.1c-0.6-0.8-1.1-1.4-1.7-2.1
		c-0.6-0.8-1.1-1.4-1.7-2.1c-0.6-0.8-1.1-1.4-1.7-2.1c-0.8-1.4-1.8-2.7-3.2-3.8c7-9,11.1-19.9,11.1-32.1c0-30.4-25.7-54.7-57-54.7
		c-31.2-0.6-56.6,23.7-56.6,54.1s25.7,54.7,57,54.7c5.5,0,10.6-0.8,15.4-2.1c0.8,1.4,1.7,3,2.4,4c0.6,0.8,1.1,1.4,1.7,2.1
		c0.6,0.8,1.1,1.4,1.7,2.1c0.6,0.8,1.1,1.4,1.7,2.1c0.6,0.8,1.1,1.4,1.7,2.1c0.6,0.8,1.1,1.4,1.7,2.1c0.6,0.8,1.1,1.4,1.7,2.1
		c0.6,0.8,1.1,1.4,1.7,2.1c0.6,0.8,1.1,1.4,1.7,2.1c0.6,0.8,1.1,1.4,1.7,2.1c0.6,0.8,1.1,1.4,1.7,2.1c0.6,0.8,1.1,1.4,1.7,2.1
		c0.6,0.8,1.1,1.4,1.7,2.1c0.6,0.8,1.1,1.4,1.7,2.1c0.6,0.8,1.1,1.4,1.7,2.1c0.6,0.8,1.1,1.4,1.7,2.1c0.6,0.8,1.1,1.4,1.7,2.1
		c0.6,0.8,1.1,1.4,1.7,2.1c0.6,0.8,1.1,1.4,1.7,2.1c0.2,0.2,0.6,0.6,0.8,1.1c-16.5,16.5-26.8,38.6-26.8,63.3c0,7,0.8,13.8,2.4,20.3
		c0,0-0.2,0-0.2,0.2c-0.8,0.2-1.4,0.6-2.1,0.8c-0.8,0.2-1.4,0.6-2.1,0.8c-0.8,0.2-1.4,0.6-2.1,0.8c-0.8,0.2-1.4,0.6-2.1,0.8
		c-0.8,0.2-1.4,0.6-2.1,0.8c-0.8,0.2-1.4,0.6-2.1,0.8c-0.8,0.2-1.4,0.6-2.1,0.8c-0.8,0.2-1.4,0.6-2.1,0.8c-0.8,0.2-1.4,0.6-2.1,0.8
		c-0.8,0.2-1.4,0.6-2.1,0.8c-0.8,0.2-1.4,0.6-2.1,0.8c-0.8,0.2-1.4,0.6-2.1,0.8c-0.8,0.2-1.4,0.6-2.1,0.8c-0.8,0.2-1.4,0.6-2.1,0.8
		c-0.8,0.2-1.4,0.6-2.1,0.8c-0.8,0.2-1.4,0.6-2.1,0.8c-0.8,0.2-1.4,0.6-2.1,0.8c-0.8,0.2-1.4,0.6-2.1,0.8c-0.8,0.2-1.4,0.6-2.1,0.8
		c-0.8,0.2-1.4,0.6-2.1,0.8c-0.8,0.2-1.4,0.6-2.1,0.8c-0.8,0.2-1.4,0.6-2.1,0.8c-0.8,0.2-1.4,0.6-2.1,0.8c-0.8,0.2-1.4,0.6-2.1,0.8
		c-0.8,0.2-1.4,0.6-2.1,0.8c-0.8,0.2-1.4,0.6-2.1,0.8c-0.8,0.2-1.4,0.6-2.1,0.8c-0.8,0.2-1.4,0.6-2.1,0.8c-0.8,0.2-1.4,0.6-2.1,0.8
		l0,0c-0.8,0.2-1.4,0.6-2.1,0.8l0,0c-0.8,0.2-1.4,0.6-2.1,0.8c0,0,0,0-0.2,0c-0.8,0.2-1.4,0.6-1.8,0.8h-0.2
		c-0.6,0.2-1.4,0.6-1.8,0.8h-0.2c-1.7,0.6-3,1.4-4.4,2.4c-10.3-10.3-24.9-16.7-41.1-16.7c-31.7,0-57,24.3-57,54.7s25.7,54.7,57,54.7
		c31.7,0,57-24.3,57-54.7c0-1.8,0-3.8-0.2-5.6c0.8-0.2,1.8-0.6,2.7-0.8c0.8-0.2,1.4-0.6,1.8-0.8l0,0c0.8-0.2,1.4-0.6,2.1-0.8
		c0.8-0.2,1.4-0.6,2.1-0.8c0.8-0.2,1.4-0.6,2.1-1.1c0.8-0.2,1.4-0.6,2.1-1.1c0.8-0.2,1.4-0.6,2.1-1.1c0.8-0.2,1.4-0.6,2.1-1.1
		c0.8-0.2,1.4-0.6,2.1-0.8c0.8-0.2,1.4-0.6,2.1-0.8c0.8-0.2,1.4-0.6,2.1-0.8c0.8-0.2,1.4-0.6,2.1-0.8c0.8-0.2,1.4-0.6,2.1-0.8
		c0.8-0.2,1.4-0.6,2.1-0.8c0.8-0.2,1.4-0.6,2.1-0.8c0.8-0.2,1.4-0.6,2.1-1.1c0.8-0.2,1.4-0.6,2.1-0.8c0.8-0.2,1.4-0.6,2.1-0.8
		c0.8-0.2,1.4-0.6,2.1-1.1c0.8-0.2,1.4-0.6,2.1-0.8c0.8-0.2,1.4-0.6,2.1-0.8c0.8-0.2,1.4-0.6,2.1-0.8c0.8-0.2,1.4-0.6,2.1-0.8
		c0.8-0.2,1.4-0.6,2.1-0.8c0.8-0.2,1.4-0.6,2.1-0.8c0.8-0.2,1.4-0.6,2.1-0.8c0.8-0.2,1.4-0.6,2.1-1.1c0.8-0.2,1.4-0.6,2.1-0.8
		c0.8-0.2,1.4-0.6,2.1-0.8c0.8-0.2,1.4-0.6,2.1-0.8c0.8-0.2,1.4-0.6,2.1-0.8c0.8-0.2,1.4-0.6,2.1-0.8c0.8-0.2,1.4-0.6,2.1-0.8
		c0.8-0.2,1.4-0.6,2.1-0.8c0.8-0.2,1.4-0.6,2.1-0.8h0.2c17.3,23.4,45.4,38.1,77.7,38.1c52.5,0,95.2-40.9,95.2-91.2
		C392.4,165.7,350,124.8,297.2,124.8L297.2,124.8z"/>
	<g class="st2">
		<path class="st1" d="M44,376.9v8.3h0.2c1.6-3.2,3.5-5.6,5.8-7.1c2.3-1.5,5.2-2.2,8.7-2.1v6.9c-2.6,0-4.8,0.4-6.6,1.1
			c-1.8,0.7-3.3,1.8-4.4,3.1c-1.1,1.4-1.9,3-2.4,5c-0.5,2-0.8,4.2-0.8,6.8v17.6h-6.5v-39.5H44z"/>
	</g>
	<g class="st2">
		<path class="st1" d="M61.2,388.5c0.8-2.5,2-4.7,3.7-6.6c1.6-1.9,3.6-3.3,6-4.4c2.4-1.1,5.1-1.6,8.3-1.6c3.2,0,5.9,0.5,8.3,1.6
			c2.4,1.1,4.4,2.5,6,4.4c1.6,1.9,2.9,4.1,3.7,6.6c0.8,2.5,1.2,5.2,1.2,8.1s-0.4,5.6-1.2,8.1c-0.8,2.5-2,4.7-3.7,6.5
			c-1.6,1.9-3.6,3.3-6,4.4c-2.4,1-5.1,1.6-8.3,1.6c-3.1,0-5.9-0.5-8.3-1.6c-2.4-1-4.4-2.5-6-4.4c-1.6-1.9-2.9-4-3.7-6.5
			c-0.8-2.5-1.2-5.2-1.2-8.1S60.4,391.1,61.2,388.5z M67.8,403.1c0.6,1.9,1.5,3.4,2.6,4.7c1.1,1.2,2.4,2.2,3.9,2.9
			c1.5,0.7,3.1,1,4.8,1c1.7,0,3.3-0.3,4.8-1c1.5-0.7,2.8-1.6,3.9-2.9c1.1-1.2,2-2.8,2.6-4.7c0.6-1.9,1-4,1-6.4c0-2.4-0.3-4.5-1-6.4
			c-0.6-1.9-1.5-3.4-2.6-4.7c-1.1-1.3-2.4-2.2-3.9-2.9c-1.5-0.7-3.1-1-4.8-1c-1.7,0-3.3,0.3-4.8,1c-1.5,0.7-2.8,1.6-3.9,2.9
			c-1.1,1.3-2,2.8-2.6,4.7c-0.6,1.9-1,4-1,6.4C66.9,399.1,67.2,401.2,67.8,403.1z"/>
		<path class="st1" d="M112.1,376.9v6.3h0.2c2.7-4.8,7-7.2,12.8-7.2c2.6,0,4.8,0.4,6.5,1.1c1.7,0.7,3.1,1.7,4.2,3
			c1.1,1.3,1.8,2.8,2.3,4.5c0.4,1.8,0.6,3.7,0.6,5.8v26h-6.5v-26.8c0-2.4-0.7-4.4-2.1-5.8c-1.4-1.4-3.4-2.1-5.9-2.1
			c-2,0-3.7,0.3-5.2,0.9s-2.7,1.5-3.6,2.6c-1,1.1-1.7,2.4-2.2,3.9c-0.5,1.5-0.7,3.1-0.7,4.9v22.3H106v-39.5H112.1z"/>
		<path class="st1" d="M183.5,416.2c-1.1,0.7-2.7,1-4.7,1c-1.7,0-3-0.5-4-1.4c-1-0.9-1.5-2.5-1.5-4.6c-1.8,2.1-3.9,3.7-6.2,4.6
			c-2.4,0.9-4.9,1.4-7.7,1.4c-1.8,0-3.5-0.2-5.1-0.6s-3-1-4.2-1.9c-1.2-0.9-2.1-2-2.8-3.4c-0.7-1.4-1-3.1-1-5.1
			c0-2.2,0.4-4.1,1.1-5.5c0.8-1.4,1.8-2.6,3-3.5c1.2-0.9,2.7-1.6,4.3-2c1.6-0.5,3.2-0.8,4.9-1.1c1.8-0.4,3.5-0.6,5.1-0.8
			c1.6-0.2,3-0.4,4.2-0.8c1.2-0.3,2.2-0.8,2.9-1.5c0.7-0.6,1.1-1.6,1.1-2.8c0-1.4-0.3-2.6-0.8-3.4c-0.5-0.9-1.2-1.5-2.1-2
			c-0.8-0.5-1.8-0.8-2.8-0.9c-1-0.2-2.1-0.2-3.1-0.2c-2.8,0-5,0.5-6.9,1.6c-1.8,1-2.8,3-3,5.9h-6.5c0.1-2.4,0.6-4.5,1.5-6.2
			c0.9-1.7,2.1-3,3.7-4.1c1.5-1,3.3-1.8,5.2-2.3c2-0.5,4.1-0.7,6.3-0.7c1.8,0,3.6,0.1,5.3,0.4c1.8,0.3,3.3,0.8,4.8,1.6
			c1.4,0.8,2.6,1.9,3.4,3.3c0.9,1.4,1.3,3.3,1.3,5.6v20.3c0,1.5,0.1,2.6,0.3,3.4c0.2,0.7,0.8,1.1,1.8,1.1c0.6,0,1.2-0.1,2-0.4V416.2
			z M173,395.9c-0.8,0.6-1.9,1.1-3.2,1.3c-1.3,0.3-2.7,0.5-4.2,0.7c-1.5,0.2-2.9,0.4-4.4,0.6c-1.5,0.2-2.8,0.6-4,1.1
			c-1.2,0.5-2.1,1.2-2.9,2.2c-0.7,0.9-1.1,2.2-1.1,3.9c0,1.1,0.2,2,0.6,2.7c0.4,0.7,1,1.3,1.7,1.8c0.7,0.5,1.5,0.8,2.4,1
			c0.9,0.2,1.9,0.3,2.9,0.3c2.1,0,4-0.3,5.5-0.9c1.5-0.6,2.8-1.3,3.7-2.2c1-0.9,1.7-1.9,2.1-2.9c0.5-1,0.7-2,0.7-2.9V395.9z"/>
		<path class="st1" d="M196.4,361.8v54.6h-6.5v-54.6H196.4z"/>
		<path class="st1" d="M235.3,416.4v-5.3h-0.2c-1.1,2.2-2.8,3.8-5,4.7c-2.3,1-4.8,1.5-7.6,1.5c-3.1,0-5.7-0.6-8-1.7
			c-2.3-1.1-4.2-2.6-5.7-4.5c-1.5-1.9-2.6-4.1-3.4-6.6c-0.8-2.5-1.1-5.1-1.1-7.9c0-2.8,0.4-5.5,1.1-7.9c0.7-2.5,1.9-4.7,3.4-6.5
			c1.5-1.9,3.4-3.3,5.7-4.4c2.3-1.1,4.9-1.6,7.9-1.6c1,0,2.1,0.1,3.3,0.3c1.2,0.2,2.3,0.5,3.5,1c1.2,0.5,2.3,1.1,3.3,1.9
			c1,0.8,1.9,1.8,2.6,2.9h0.2v-20.3h6.5v54.6H235.3z M212,402.4c0.5,1.8,1.2,3.3,2.2,4.7c1,1.4,2.3,2.5,3.8,3.3
			c1.6,0.8,3.4,1.2,5.5,1.2c2.2,0,4.1-0.4,5.6-1.3c1.5-0.9,2.8-2,3.7-3.4c1-1.4,1.7-3,2.1-4.8c0.4-1.8,0.6-3.6,0.6-5.4
			c0-1.9-0.2-3.8-0.7-5.6c-0.5-1.8-1.2-3.4-2.2-4.8s-2.3-2.5-3.9-3.3c-1.6-0.8-3.5-1.3-5.7-1.3c-2.2,0-4.1,0.4-5.6,1.3
			c-1.5,0.9-2.8,2-3.7,3.4s-1.6,3.1-2,4.9c-0.4,1.8-0.6,3.7-0.6,5.7C211.3,398.8,211.5,400.6,212,402.4z"/>
		<path class="st1" d="M250.9,388.5c0.8-2.5,2-4.7,3.7-6.6c1.6-1.9,3.6-3.3,6-4.4c2.4-1.1,5.1-1.6,8.3-1.6c3.2,0,5.9,0.5,8.3,1.6
			c2.4,1.1,4.4,2.5,6,4.4c1.6,1.9,2.9,4.1,3.7,6.6c0.8,2.5,1.2,5.2,1.2,8.1s-0.4,5.6-1.2,8.1c-0.8,2.5-2,4.7-3.7,6.5
			c-1.6,1.9-3.6,3.3-6,4.4c-2.4,1-5.1,1.6-8.3,1.6c-3.1,0-5.9-0.5-8.3-1.6c-2.4-1-4.4-2.5-6-4.4c-1.6-1.9-2.9-4-3.7-6.5
			c-0.8-2.5-1.2-5.2-1.2-8.1S250.1,391.1,250.9,388.5z M257.5,403.1c0.6,1.9,1.5,3.4,2.6,4.7c1.1,1.2,2.4,2.2,3.9,2.9
			c1.5,0.7,3.1,1,4.8,1s3.3-0.3,4.8-1c1.5-0.7,2.8-1.6,3.9-2.9c1.1-1.2,2-2.8,2.6-4.7c0.6-1.9,1-4,1-6.4c0-2.4-0.3-4.5-1-6.4
			c-0.6-1.9-1.5-3.4-2.6-4.7c-1.1-1.3-2.4-2.2-3.9-2.9s-3.1-1-4.8-1s-3.3,0.3-4.8,1s-2.8,1.6-3.9,2.9c-1.1,1.3-2,2.8-2.6,4.7
			c-0.6,1.9-1,4-1,6.4C256.6,399.1,256.9,401.2,257.5,403.1z"/>
	</g>
	<g class="st2">
		<path class="st1" d="M300.3,361.8v54.6h-4.8v-54.6H300.3z"/>
		<path class="st1" d="M310.5,383.1c0.8-1.7,1.9-3.1,3.3-4.1c1.4-1.1,3-1.9,4.9-2.4c1.9-0.5,4-0.8,6.3-0.8c1.7,0,3.5,0.2,5.2,0.5
			c1.7,0.3,3.3,1,4.7,1.9c1.4,0.9,2.5,2.2,3.4,3.9c0.9,1.7,1.3,3.8,1.3,6.5v20.9c0,1.9,0.9,2.9,2.8,2.9c0.6,0,1.1-0.1,1.5-0.3v4.1
			c-0.6,0.1-1.1,0.2-1.5,0.2s-1,0.1-1.6,0.1c-1.2,0-2.2-0.2-2.9-0.5c-0.7-0.3-1.3-0.8-1.7-1.4c-0.4-0.6-0.7-1.3-0.8-2.2
			c-0.1-0.8-0.2-1.8-0.2-2.8H335c-0.9,1.3-1.7,2.4-2.6,3.4c-0.9,1-1.9,1.8-3,2.5s-2.3,1.2-3.7,1.5c-1.4,0.4-3.1,0.5-5,0.5
			c-1.8,0-3.6-0.2-5.2-0.7c-1.6-0.4-3-1.1-4.2-2.1c-1.2-0.9-2.1-2.1-2.8-3.6s-1-3.2-1-5.2c0-2.8,0.6-4.9,1.8-6.5
			c1.2-1.6,2.8-2.7,4.9-3.6c2-0.8,4.3-1.4,6.8-1.7c2.5-0.3,5.1-0.7,7.7-1c1-0.1,1.9-0.2,2.7-0.4c0.8-0.2,1.4-0.4,1.9-0.8
			c0.5-0.4,0.9-0.9,1.2-1.6c0.3-0.7,0.4-1.5,0.4-2.6c0-1.6-0.3-3-0.8-4c-0.5-1-1.3-1.9-2.2-2.5c-0.9-0.6-2-1-3.3-1.3
			c-1.2-0.2-2.6-0.3-4-0.3c-3.1,0-5.6,0.7-7.5,2.2s-3,3.8-3.1,7h-4.8C309.2,386.7,309.7,384.8,310.5,383.1z M334.6,394.8
			c-0.3,0.6-0.9,1-1.8,1.2c-0.9,0.3-1.6,0.4-2.3,0.5c-2,0.4-4.1,0.7-6.3,1c-2.2,0.3-4.1,0.7-5.9,1.3c-1.8,0.6-3.2,1.4-4.4,2.4
			c-1.1,1-1.7,2.5-1.7,4.5c0,1.2,0.2,2.3,0.7,3.2c0.5,0.9,1.1,1.8,1.9,2.4c0.8,0.7,1.8,1.2,2.8,1.6c1.1,0.4,2.2,0.5,3.3,0.5
			c1.8,0,3.6-0.3,5.3-0.8c1.7-0.6,3.1-1.4,4.4-2.4c1.2-1.1,2.2-2.4,3-3.9c0.7-1.5,1.1-3.3,1.1-5.2v-6.3H334.6z"/>
		<path class="st1" d="M354,361.8v22.6h0.2c0.5-1.4,1.2-2.7,2.2-3.7c0.9-1.1,2-2,3.2-2.7c1.2-0.7,2.5-1.3,4-1.6s2.9-0.5,4.3-0.5
			c3,0,5.6,0.6,7.8,1.7c2.2,1.1,4.1,2.6,5.5,4.5c1.5,1.9,2.6,4.1,3.3,6.6c0.7,2.5,1.1,5.2,1.1,8c0,2.8-0.4,5.5-1.1,8
			c-0.7,2.5-1.8,4.7-3.3,6.6c-1.5,1.9-3.3,3.4-5.5,4.5c-2.2,1.1-4.8,1.6-7.8,1.6c-3.2,0-6.1-0.7-8.6-2.2c-2.5-1.5-4.3-3.6-5.5-6.3
			h-0.2v7.5h-4.4v-54.6H354z M380.1,390.6c-0.5-2-1.2-3.8-2.3-5.4c-1-1.6-2.4-2.9-4-3.9c-1.6-1-3.6-1.5-5.9-1.5
			c-2.5,0-4.7,0.5-6.5,1.5s-3.2,2.3-4.3,3.9c-1.1,1.6-1.9,3.4-2.4,5.4c-0.5,2-0.7,4-0.7,6.1c0,2,0.2,4.1,0.7,6.1
			c0.5,2,1.3,3.8,2.4,5.4s2.5,2.9,4.3,3.9c1.8,1,3.9,1.5,6.5,1.5c2.3,0,4.3-0.5,5.9-1.5c1.6-1,3-2.3,4-3.9c1-1.6,1.8-3.4,2.3-5.4
			c0.5-2,0.7-4,0.7-6.1C380.8,394.6,380.5,392.6,380.1,390.6z"/>
	</g>
</g>
</svg>
